#Comment line ignore any data following # character 
#Hierarchical Translation and Rotation (.htr) file 
[Header]	
#Header keywords are followed by a single value 
FileType HTR		#Single word string
DataType HTRS		#Translation followed by rotation and scale data
FileVersion 1		#integer
NumSegments 84		#integer
NumFrames 2		#integer
DataFrameRate 30		#integer, data frame rate in this file
EulerRotationOrder ZYX
CalibrationUnits mm
RotationUnits Degrees
GlobalAxisofGravity Y
BoneLengthAxis Y
ScaleFactor 1.00
[SegmentNames&Hierarchy]
#CHILD	PARENT
MASTER GLOBAL
root MASTER
chest root
L_mid_tent01 root
R_mid_tent01 root
spine01 root
Bip01_Neck chest
L_humerus chest
R_humerus chest
weapon_bone chest
Bip01_Head Bip01_Neck
eye_left_bone Bip01_Head
eye_right_bone Bip01_Head
L_forearm L_humerus
L_front_hand L_forearm
L_weapon_bone L_forearm
L_front_hand01_01 L_front_hand
L_front_hand02_01 L_front_hand
L_front_hand03_01 L_front_hand
L_front_hand01_02 L_front_hand01_01
L_front_hand02_02 L_front_hand02_01
L_front_hand03_02 L_front_hand03_01
R_forearm R_humerus
R_front_hand R_forearm
R_weapon_bone R_forearm
R_front_hand01_01 R_front_hand
R_front_hand02_01 R_front_hand
R_front_hand03_01 R_front_hand
R_front_hand01_02 R_front_hand01_01
R_front_hand02_02 R_front_hand02_01
R_front_hand03_02 R_front_hand03_01
null_rope01_connect L_mid_tent01
Rope1_Seg01 null_rope01_connect
Rope1_Seg02 Rope1_Seg01
Rope1_Seg03 Rope1_Seg02
Rope1_Seg04 Rope1_Seg03
Rope1_Seg05 Rope1_Seg04
Rope1_Seg06 Rope1_Seg05
Rope1_Seg07 Rope1_Seg06
Rope1_Seg09 Rope1_Seg07
L_mid_hand01 Rope1_Seg09
L_mid_hand02 Rope1_Seg09
L_mid_hand03 Rope1_Seg09
null_rope02_connect R_mid_tent01
Rope2_Seg01 null_rope02_connect
Rope2_Seg02 Rope2_Seg01
Rope2_Seg03 Rope2_Seg02
Rope2_Seg04 Rope2_Seg03
Rope2_Seg05 Rope2_Seg04
Rope2_Seg06 Rope2_Seg05
Rope2_Seg07 Rope2_Seg06
Rope2_Seg09 Rope2_Seg07
R_mid_hand01 Rope2_Seg09
R_mid_hand02 Rope2_Seg09
R_mid_hand03 Rope2_Seg09
spine02 spine01
spine03 spine02
pelvis spine03
null_rope03_connect pelvis
null_rope04_connect pelvis
Rope3_Seg01 null_rope03_connect
Rope3_Seg02 Rope3_Seg01
Rope3_Seg03 Rope3_Seg02
Rope3_Seg04 Rope3_Seg03
Rope3_Seg05 Rope3_Seg04
Rope3_Seg06 Rope3_Seg05
Rope3_Seg07 Rope3_Seg06
Rope3_Seg08 Rope3_Seg07
Rope3_Seg09 Rope3_Seg08
R_rear_hand01 Rope3_Seg09
R_rear_hand02 Rope3_Seg09
R_rear_hand03 Rope3_Seg09
Rope4_Seg01 null_rope04_connect
Rope4_Seg02 Rope4_Seg01
Rope4_Seg03 Rope4_Seg02
Rope4_Seg04 Rope4_Seg03
Rope4_Seg05 Rope4_Seg04
Rope4_Seg06 Rope4_Seg05
Rope4_Seg07 Rope4_Seg06
Rope4_Seg08 Rope4_Seg07
Rope4_Seg09 Rope4_Seg08
L_rear_hand01 Rope4_Seg09
L_rear_hand02 Rope4_Seg09
L_rear_hand03 Rope4_Seg09
[BasePosition]
#SegmentName Tx, Ty, Tz, Rx, Ry, Rz, BoneLength
MASTER 0.000000 0.000000 0.000000 -90.000000 0.000000 0.000000 10.000000 
root 0.000000 0.000000 0.000000 0.000000 0.000000 0.000000 10.000000 
chest 0.000000 0.000000 0.000000 0.000000 0.000000 0.000000 10.000000 
L_mid_tent01 0.000000 0.000000 0.000000 0.000000 0.000000 0.000000 10.000000 
R_mid_tent01 0.000000 0.000000 0.000000 0.000000 0.000000 0.000000 10.000000 
spine01 0.000000 0.000000 0.000000 0.000000 0.000000 0.000000 10.000000 
Bip01_Neck 0.000000 0.000000 0.000000 0.000000 0.000000 0.000000 10.000000 
L_humerus 0.000000 0.000000 0.000000 0.000000 0.000000 0.000000 10.000000 
R_humerus 0.000000 0.000000 0.000000 0.000000 0.000000 0.000000 10.000000 
weapon_bone 0.000000 0.000000 0.000000 0.000000 0.000000 0.000000 10.000000 
Bip01_Head 0.000000 0.000000 0.000000 0.000000 0.000000 0.000000 10.000000 
eye_left_bone 0.000000 0.000000 0.000000 0.000000 0.000000 0.000000 10.000000 
eye_right_bone 0.000000 0.000000 0.000000 0.000000 0.000000 0.000000 10.000000 
L_forearm 0.000000 0.000000 0.000000 0.000000 0.000000 0.000000 10.000000 
L_front_hand 0.000000 0.000000 0.000000 0.000000 0.000000 0.000000 10.000000 
L_weapon_bone 0.000000 0.000000 0.000000 0.000000 0.000000 0.000000 10.000000 
L_front_hand01_01 0.000000 0.000000 0.000000 0.000000 0.000000 0.000000 10.000000 
L_front_hand02_01 0.000000 0.000000 0.000000 0.000000 0.000000 0.000000 10.000000 
L_front_hand03_01 0.000000 0.000000 0.000000 0.000000 0.000000 0.000000 10.000000 
L_front_hand01_02 0.000000 0.000000 0.000000 0.000000 0.000000 0.000000 10.000000 
L_front_hand02_02 0.000000 0.000000 0.000000 0.000000 0.000000 0.000000 10.000000 
L_front_hand03_02 0.000000 0.000000 0.000000 0.000000 0.000000 0.000000 10.000000 
R_forearm 0.000000 0.000000 0.000000 0.000000 0.000000 0.000000 10.000000 
R_front_hand 0.000000 0.000000 0.000000 0.000000 0.000000 0.000000 10.000000 
R_weapon_bone 0.000000 0.000000 0.000000 0.000000 0.000000 0.000000 10.000000 
R_front_hand01_01 0.000000 0.000000 0.000000 0.000000 0.000000 0.000000 10.000000 
R_front_hand02_01 0.000000 0.000000 0.000000 0.000000 0.000000 0.000000 10.000000 
R_front_hand03_01 0.000000 0.000000 0.000000 0.000000 0.000000 0.000000 10.000000 
R_front_hand01_02 0.000000 0.000000 0.000000 0.000000 0.000000 0.000000 10.000000 
R_front_hand02_02 0.000000 0.000000 0.000000 0.000000 0.000000 0.000000 10.000000 
R_front_hand03_02 0.000000 0.000000 0.000000 0.000000 0.000000 0.000000 10.000000 
null_rope01_connect 0.000000 0.000000 0.000000 0.000000 0.000000 0.000000 10.000000 
Rope1_Seg01 0.000000 0.000000 0.000000 0.000000 0.000000 0.000000 10.000000 
Rope1_Seg02 0.000000 0.000000 0.000000 0.000000 0.000000 0.000000 10.000000 
Rope1_Seg03 0.000000 0.000000 0.000000 0.000000 0.000000 0.000000 10.000000 
Rope1_Seg04 0.000000 0.000000 0.000000 0.000000 0.000000 0.000000 10.000000 
Rope1_Seg05 0.000000 0.000000 0.000000 0.000000 0.000000 0.000000 10.000000 
Rope1_Seg06 0.000000 0.000000 0.000000 0.000000 0.000000 0.000000 10.000000 
Rope1_Seg07 0.000000 0.000000 0.000000 0.000000 0.000000 0.000000 10.000000 
Rope1_Seg09 0.000000 0.000000 0.000000 0.000000 0.000000 0.000000 10.000000 
L_mid_hand01 0.000000 0.000000 0.000000 0.000000 0.000000 0.000000 10.000000 
L_mid_hand02 0.000000 0.000000 0.000000 0.000000 0.000000 0.000000 10.000000 
L_mid_hand03 0.000000 0.000000 0.000000 0.000000 0.000000 0.000000 10.000000 
null_rope02_connect 0.000000 0.000000 0.000000 0.000000 0.000000 0.000000 10.000000 
Rope2_Seg01 0.000000 0.000000 0.000000 0.000000 0.000000 0.000000 10.000000 
Rope2_Seg02 0.000000 0.000000 0.000000 0.000000 0.000000 0.000000 10.000000 
Rope2_Seg03 0.000000 0.000000 0.000000 0.000000 0.000000 0.000000 10.000000 
Rope2_Seg04 0.000000 0.000000 0.000000 0.000000 0.000000 0.000000 10.000000 
Rope2_Seg05 0.000000 0.000000 0.000000 0.000000 0.000000 0.000000 10.000000 
Rope2_Seg06 0.000000 0.000000 0.000000 0.000000 0.000000 0.000000 10.000000 
Rope2_Seg07 0.000000 0.000000 0.000000 0.000000 0.000000 0.000000 10.000000 
Rope2_Seg09 0.000000 0.000000 0.000000 0.000000 0.000000 0.000000 10.000000 
R_mid_hand01 0.000000 0.000000 0.000000 0.000000 0.000000 0.000000 10.000000 
R_mid_hand02 0.000000 0.000000 0.000000 0.000000 0.000000 0.000000 10.000000 
R_mid_hand03 0.000000 0.000000 0.000000 0.000000 0.000000 0.000000 10.000000 
spine02 0.000000 0.000000 0.000000 0.000000 0.000000 0.000000 10.000000 
spine03 0.000000 0.000000 0.000000 0.000000 0.000000 0.000000 10.000000 
pelvis 0.000000 0.000000 0.000000 0.000000 0.000000 0.000000 10.000000 
null_rope03_connect 0.000000 0.000000 0.000000 0.000000 0.000000 0.000000 10.000000 
null_rope04_connect 0.000000 0.000000 0.000000 0.000000 0.000000 0.000000 10.000000 
Rope3_Seg01 0.000000 0.000000 0.000000 0.000000 0.000000 0.000000 10.000000 
Rope3_Seg02 0.000000 0.000000 0.000000 0.000000 0.000000 0.000000 10.000000 
Rope3_Seg03 0.000000 0.000000 0.000000 0.000000 0.000000 0.000000 10.000000 
Rope3_Seg04 0.000000 0.000000 0.000000 0.000000 0.000000 0.000000 10.000000 
Rope3_Seg05 0.000000 0.000000 0.000000 0.000000 0.000000 0.000000 10.000000 
Rope3_Seg06 0.000000 0.000000 0.000000 0.000000 0.000000 0.000000 10.000000 
Rope3_Seg07 0.000000 0.000000 0.000000 0.000000 0.000000 0.000000 10.000000 
Rope3_Seg08 0.000000 0.000000 0.000000 0.000000 0.000000 0.000000 10.000000 
Rope3_Seg09 0.000000 0.000000 0.000000 0.000000 0.000000 0.000000 10.000000 
R_rear_hand01 0.000000 0.000000 0.000000 0.000000 0.000000 0.000000 10.000000 
R_rear_hand02 0.000000 0.000000 0.000000 0.000000 0.000000 0.000000 10.000000 
R_rear_hand03 0.000000 0.000000 0.000000 0.000000 0.000000 0.000000 10.000000 
Rope4_Seg01 0.000000 0.000000 0.000000 0.000000 0.000000 0.000000 10.000000 
Rope4_Seg02 0.000000 0.000000 0.000000 0.000000 0.000000 0.000000 10.000000 
Rope4_Seg03 0.000000 0.000000 0.000000 0.000000 0.000000 0.000000 10.000000 
Rope4_Seg04 0.000000 0.000000 0.000000 0.000000 0.000000 0.000000 10.000000 
Rope4_Seg05 0.000000 0.000000 0.000000 0.000000 0.000000 0.000000 10.000000 
Rope4_Seg06 0.000000 0.000000 0.000000 0.000000 0.000000 0.000000 10.000000 
Rope4_Seg07 0.000000 0.000000 0.000000 0.000000 0.000000 0.000000 10.000000 
Rope4_Seg08 0.000000 0.000000 0.000000 0.000000 0.000000 0.000000 10.000000 
Rope4_Seg09 0.000000 0.000000 0.000000 0.000000 0.000000 0.000000 10.000000 
L_rear_hand01 0.000000 0.000000 0.000000 0.000000 0.000000 0.000000 10.000000 
L_rear_hand02 0.000000 0.000000 0.000000 0.000000 0.000000 0.000000 10.000000 
L_rear_hand03 0.000000 0.000000 0.000000 0.000000 0.000000 0.000000 10.000000 
#Beginning of Data. Separated by tabs
#Fr	Tx	Ty	Tz	Rx	Ry	Rz	SF
[MASTER]
39 -6643.071777 9606.944336 -88.154671 0.001660 0.001660 0.001660 11680.390625
40 -6743.589355 9851.342773 -46.281677 0.001660 0.001660 0.001660 11938.471680
[root]
39 -16.500244 -1.919166 1456.246826 -91.707199 -14.096211 -89.547920 1456.341553
40 -16.500244 6.257779 1450.497559 -91.723625 -12.273935 -89.493530 1450.604858
[chest]
39 -84.512650 -34.090519 0.000000 -4.724386 -5.134852 168.187576 91.129311
40 -84.512650 -34.090519 0.000000 -3.410128 -2.553275 168.190048 91.129311
[L_mid_tent01]
39 27.298607 22.178970 -249.919388 -19.370405 17.127834 21.984325 252.382294
40 27.298595 22.178963 -249.919418 -20.123861 14.598976 17.438370 252.382309
[R_mid_tent01]
39 23.228794 24.509907 226.238495 -167.368607 -24.441347 31.753700 228.744751
40 23.228794 24.509907 226.238495 -166.138199 -21.135496 27.741713 228.744751
[spine01]
39 -0.361383 -0.195265 0.000000 0.001955 0.001299 22.767790 0.410763
40 -0.361383 -0.195265 0.000000 0.001951 0.001306 22.409824 0.410763
[Bip01_Neck]
39 165.484543 71.581718 0.000119 176.643677 -1.657967 43.431911 180.302734
40 165.484543 71.581718 0.000119 176.643677 -1.657967 43.431911 180.302734
[L_humerus]
39 -13.983130 -135.272980 -120.471481 -5.515517 68.782822 84.529861 181.680161
40 -13.983130 -135.272980 -120.471481 -5.485051 68.847649 84.563339 181.680161
[R_humerus]
39 -13.983309 -135.273102 125.287651 27.846910 -69.803192 67.803535 184.909012
40 -13.983309 -135.273102 125.287651 27.876904 -69.868912 67.776520 184.909012
[weapon_bone]
39 235.964890 -300.705902 0.000000 0.000000 -89.951546 -128.212341 382.234833
40 235.964890 -300.705902 0.000000 0.000000 -89.951546 -128.212341 382.234833
[Bip01_Head]
39 213.326447 186.041931 7.558708 5.200446 6.151311 -43.834991 283.155273
40 213.326431 186.041901 7.558651 5.200446 6.151311 -43.834991 283.155243
[eye_left_bone]
39 -24.626970 125.451866 -64.772606 0.000000 -90.000000 -99.840431 143.318359
40 -24.626970 125.451866 -64.772606 0.000000 -90.000000 -99.840431 143.318359
[eye_right_bone]
39 -24.626970 125.451866 64.327362 0.000000 -89.965736 80.156380 143.117676
40 -24.626970 125.451866 64.327362 0.000000 -89.965736 80.156380 143.117676
[L_forearm]
39 322.776093 0.000000 -0.000119 0.000397 -0.002313 -109.453300 322.776093
40 322.776093 0.000000 -0.000119 0.000396 -0.002314 -109.426048 322.776093
[L_front_hand]
39 241.149185 -0.042021 -3.300071 -178.667953 -1.835447 -27.422350 241.171753
40 241.149185 -0.042021 -3.300071 -178.667953 -1.835447 -27.422350 241.171753
[L_weapon_bone]
39 156.183838 0.000000 0.000000 0.000014 0.000007 0.000001 156.183838
40 156.183838 0.000000 0.000000 0.000014 0.000007 0.000001 156.183838
[L_front_hand01_01]
39 86.095154 20.947098 -0.655860 -0.366594 -0.477154 75.385574 88.609184
40 86.095154 20.947098 -0.655860 -0.366594 -0.477154 75.385574 88.609184
[L_front_hand02_01]
39 86.935165 -11.437475 24.513514 154.399796 -59.883835 -61.369587 91.046425
40 86.935165 -11.437475 24.513514 154.399796 -59.883835 -61.369587 91.046425
[L_front_hand03_01]
39 86.637497 -14.123976 -20.424902 -153.913849 58.118130 -62.702866 90.126129
40 86.637497 -14.123976 -20.424902 -153.913849 58.118122 -62.702866 90.126129
[L_front_hand01_02]
39 71.020905 -0.000179 0.000030 0.000334 -0.002323 -106.354980 71.020905
40 71.020905 -0.000179 0.000030 0.000334 -0.002323 -106.367340 71.020905
[L_front_hand02_02]
39 71.020927 -0.000119 0.000060 0.000334 -0.002323 -106.354980 71.020927
40 71.020927 -0.000119 0.000060 0.000334 -0.002323 -106.367340 71.020927
[L_front_hand03_02]
39 71.020905 -0.000060 0.000060 0.000334 -0.002323 -106.354980 71.020905
40 71.020905 -0.000060 0.000060 0.000334 -0.002323 -106.367340 71.020905
[R_forearm]
39 322.776428 -0.000060 0.000030 0.202082 0.065222 -108.099472 322.776428
40 322.776428 -0.000060 0.000030 0.202099 0.065168 -108.068924 322.776428
[R_front_hand]
39 238.847015 -0.006795 2.210259 -2.635298 -10.645461 -26.312506 238.857239
40 238.847015 -0.006795 2.210259 -2.635298 -10.645461 -26.312506 238.857239
[R_weapon_bone]
39 155.664093 0.002503 -0.000030 0.003487 0.001180 -90.988930 155.664078
40 155.664093 0.002503 -0.000030 0.003487 0.001180 -90.988930 155.664078
[R_front_hand01_01]
39 87.624611 14.231146 22.918642 -154.633499 -59.950619 61.746044 91.683487
40 87.624611 14.231146 22.918642 -154.633499 -59.950619 61.746044 91.683487
[R_front_hand02_01]
39 89.356956 14.367283 -19.491137 154.602661 58.302849 63.744389 92.579636
40 89.356956 14.367283 -19.491137 154.602661 58.302849 63.744389 92.579636
[R_front_hand03_01]
39 87.286232 -22.307278 -0.143439 0.162155 -0.423168 -75.767921 90.091743
40 87.286232 -22.307278 -0.143439 0.162155 -0.423168 -75.767921 90.091743
[R_front_hand01_02]
39 71.020905 0.000060 0.000119 0.002323 -0.000334 106.381714 71.020905
40 71.020905 0.000060 0.000119 0.002323 -0.000334 106.381714 71.020905
[R_front_hand02_02]
39 71.020844 -0.000030 -0.000119 0.002323 -0.000334 106.381714 71.020836
40 71.020844 -0.000030 -0.000119 0.002323 -0.000334 106.381714 71.020836
[R_front_hand03_02]
39 71.020905 0.000000 0.000030 0.002323 -0.000334 106.381714 71.020905
40 71.020905 0.000000 0.000030 0.002323 -0.000334 106.381714 71.020905
[null_rope01_connect]
39 328.732483 0.000000 -0.000238 -149.730759 -62.963165 -130.885635 328.732483
40 328.732483 0.000000 -0.000238 -152.581100 -63.899952 -124.979515 328.732483
[Rope1_Seg01]
39 0.000000 0.000000 0.000000 50.296925 -6.640873 -121.231789 0.000000
40 0.000000 0.000000 0.000000 50.556129 -1.317991 -121.174156 0.000000
[Rope1_Seg02]
39 139.999863 -0.000179 0.000000 -10.074917 7.085263 -0.235715 139.999863
40 139.999863 -0.000179 0.000000 -11.504666 5.520634 1.470604 139.999863
[Rope1_Seg03]
39 139.999924 0.000060 -0.000060 -12.715160 7.305068 -0.374570 139.999924
40 139.999924 0.000060 -0.000060 -13.222882 5.752851 1.443067 139.999924
[Rope1_Seg04]
39 139.999924 -0.000060 -0.000119 -17.129660 6.398583 2.528888 139.999924
40 139.999924 -0.000060 -0.000119 -16.345257 5.345464 3.781218 139.999924
[Rope1_Seg05]
39 139.999832 0.000119 -0.000060 -5.580728 -1.889744 6.158121 139.999832
40 139.999832 0.000119 -0.000060 -3.931954 -3.368704 6.814529 139.999832
[Rope1_Seg06]
39 139.999954 0.000119 -0.000060 -1.740863 -1.484988 3.111322 139.999954
40 139.999954 0.000119 -0.000060 -0.747420 -2.224141 3.152780 139.999954
[Rope1_Seg07]
39 139.999985 0.000060 0.000000 -1.312071 -0.507312 1.773284 139.999985
40 139.999985 0.000060 0.000000 -0.768010 -0.847357 1.738480 139.999985
[Rope1_Seg09]
39 121.602913 0.000119 -0.000089 -89.793175 -1.359789 0.847147 121.602913
40 121.602913 0.000119 -0.000089 -89.793175 -1.359789 0.847147 121.602913
[L_mid_hand01]
39 103.859421 1.038730 8.195221 130.544373 -67.584534 -38.866943 104.187431
40 103.859421 1.038730 8.195221 130.544373 -67.584534 -38.866943 104.187431
[L_mid_hand02]
39 105.572853 -4.139662 -10.864139 -168.923172 43.409309 -73.498886 106.211075
40 105.572853 -4.139662 -10.864139 -168.923172 43.409309 -73.498886 106.211075
[L_mid_hand03]
39 104.641464 17.579376 -3.913581 -6.012627 17.808174 74.893669 106.179977
40 104.641464 17.579376 -3.913581 -6.012627 17.808174 74.893669 106.179977
[null_rope02_connect]
39 328.732849 0.000179 -0.000119 -133.703720 63.818687 -23.022102 328.732849
40 328.732849 0.000179 -0.000119 -137.169693 66.068192 -28.845980 328.732849
[Rope2_Seg01]
39 0.000074 0.000008 0.000000 81.740967 14.390908 -50.147221 0.000075
40 0.000075 0.000004 0.000000 52.070080 10.832538 -47.042576 0.000075
[Rope2_Seg02]
39 139.999741 -0.000060 -0.000119 -10.172417 -5.825819 5.772533 139.999756
40 139.999741 -0.000060 -0.000119 17.273590 -11.517591 -1.366341 139.999756
[Rope2_Seg03]
39 140.000107 0.000030 0.000000 -11.484035 -1.817100 5.465786 140.000107
40 140.000107 0.000030 0.000000 -2.545141 -6.206931 4.093920 140.000107
[Rope2_Seg04]
39 139.999802 0.000000 -0.000060 11.169545 -9.081913 -2.259073 139.999802
40 139.999802 0.000000 -0.000060 8.478803 -9.483055 -1.941978 139.999802
[Rope2_Seg05]
39 139.999985 -0.000060 0.000119 11.232208 -11.348451 -3.759838 139.999985
40 139.999985 -0.000060 0.000119 9.630719 -10.267628 -4.513789 139.999985
[Rope2_Seg06]
39 139.999893 -0.000030 -0.000119 2.788269 -5.658604 -0.269885 139.999893
40 139.999893 -0.000030 -0.000119 2.793528 -5.191059 -0.966874 139.999893
[Rope2_Seg07]
39 139.999893 0.000060 -0.000060 1.376448 -3.664316 0.026915 139.999893
40 139.999893 0.000060 -0.000060 1.272166 -3.121008 -0.324910 139.999893
[Rope2_Seg09]
39 121.338966 0.000089 -0.000060 33.793236 -1.359788 -0.847141 121.338966
40 121.338966 0.000089 -0.000060 33.793236 -1.359788 -0.847141 121.338966
[R_mid_hand01]
39 104.680779 11.144459 -10.335981 -16.212063 45.237247 70.462852 105.778534
40 104.680779 11.144459 -10.335981 -16.212063 45.237247 70.462852 105.778534
[R_mid_hand02]
39 104.070427 2.443552 8.231699 49.067368 -67.749771 39.286453 104.424065
40 104.070427 2.443552 8.231699 49.067368 -67.749771 39.286453 104.424065
[R_mid_hand03]
39 106.028137 -11.221827 -5.996406 -177.101105 15.551026 -76.585571 106.788818
40 106.028137 -11.221827 -5.996406 -177.101105 15.551026 -76.585571 106.788818
[spine02]
39 129.756927 0.001550 0.000119 0.361470 -4.044672 -12.954954 129.756927
40 129.756927 0.001550 0.000119 0.360765 -4.044735 -12.935005 129.756927
[spine03]
39 78.614479 0.081642 -4.899277 1.897722 3.830681 16.509747 78.767036
40 78.614494 0.081638 -4.899284 1.897108 3.830984 16.491398 78.767052
[pelvis]
39 169.435242 0.051022 0.000000 -0.060567 -0.180191 14.152716 169.435257
40 169.435242 0.051022 0.000000 -0.060489 -0.180217 14.102880 169.435257
[null_rope03_connect]
39 -1.257226 -2.466202 137.391083 0.000000 -89.449989 63.660736 137.418976
40 -1.257226 -2.466202 137.391083 159.189102 -89.403244 -96.955528 137.418976
[null_rope04_connect]
39 -1.259640 -2.480268 -137.844437 0.000000 -89.449989 63.660736 137.872513
40 -1.259640 -2.480268 -137.844437 159.189102 -89.403244 -96.955528 137.872513
[Rope3_Seg01]
39 0.000010 -0.000576 -0.000153 -132.871353 17.164240 -83.631020 0.000596
40 0.000010 -0.000593 -0.000153 -133.739975 20.774862 -84.302551 0.000613
[Rope3_Seg02]
39 139.999924 -0.000119 0.000060 0.055664 -2.060085 -2.452985 139.999924
40 139.999924 -0.000119 0.000060 0.077257 -1.856754 -2.527372 139.999924
[Rope3_Seg03]
39 139.999924 -0.000119 0.000119 0.144956 -2.413514 -3.746783 139.999924
40 139.999924 -0.000119 0.000119 0.143161 -2.280017 -3.627707 139.999924
[Rope3_Seg04]
39 139.999924 0.000119 0.000000 0.091250 -2.613253 -4.359736 139.999924
40 139.999924 0.000119 0.000000 0.118692 -2.830020 -4.935141 139.999924
[Rope3_Seg05]
39 139.999924 -0.000238 0.000060 0.171020 1.096316 6.817867 139.999924
40 139.999924 -0.000238 0.000060 0.180624 1.715718 5.992069 139.999924
[Rope3_Seg06]
39 139.999893 -0.000119 -0.000060 0.171671 1.685503 7.503079 139.999893
40 139.999893 -0.000119 -0.000060 0.294970 2.594554 7.468697 139.999893
[Rope3_Seg07]
39 139.999771 0.000060 -0.000119 0.181389 0.658832 3.717638 139.999771
40 139.999771 0.000060 -0.000119 0.286230 1.076697 3.427443 139.999771
[Rope3_Seg08]
39 139.999985 -0.000060 0.000000 0.263170 0.436354 2.421313 139.999985
40 139.999985 -0.000060 0.000000 0.346602 0.702356 2.204805 139.999985
[Rope3_Seg09]
39 90.185997 -0.000179 -0.000060 89.793228 -1.359877 -0.847183 90.185997
40 90.185997 -0.000179 -0.000060 89.793228 -1.359877 -0.847183 90.185997
[R_rear_hand01]
39 103.366196 -6.073594 -10.757982 -177.714203 24.565960 -73.910950 104.101845
40 103.366196 -6.073594 -10.757982 -177.714203 24.565960 -73.910950 104.101845
[R_rear_hand02]
39 100.509819 12.039542 -7.992327 -12.874829 36.868488 72.167213 101.543350
40 100.509819 12.039542 -7.992327 -12.874834 36.868492 72.167213 101.543350
[R_rear_hand03]
39 101.539970 5.215704 5.435467 71.484581 -71.816628 21.513813 101.819031
40 101.539970 5.215704 5.435467 71.484581 -71.816628 21.513813 101.819031
[Rope4_Seg01]
39 -0.000009 -0.001162 -0.000153 44.352161 24.040316 -116.898781 0.001172
40 -0.000009 -0.001191 -0.000153 43.898373 26.817327 -117.307159 0.001201
[Rope4_Seg02]
39 139.999985 0.000060 0.000119 0.350506 2.210998 4.223900 139.999985
40 139.999985 0.000060 0.000119 0.327702 2.404436 4.446921 139.999985
[Rope4_Seg03]
39 139.999924 0.000000 -0.000238 0.213924 3.363466 6.379074 139.999924
40 139.999924 0.000000 -0.000238 0.149865 3.600056 6.600921 139.999924
[Rope4_Seg04]
39 139.999985 0.000000 0.000119 -1.661420 8.951162 21.729633 139.999985
40 139.999985 0.000000 0.000119 -1.821926 9.625723 21.156404 139.999985
[Rope4_Seg05]
39 139.999802 -0.000060 -0.000119 2.181301 1.959140 -5.771800 139.999802
40 139.999802 -0.000060 -0.000119 0.805105 2.253606 -0.902704 139.999802
[Rope4_Seg06]
39 139.999924 0.000000 0.000060 4.664906 -4.469096 -20.310965 139.999924
40 139.999924 0.000000 0.000060 6.068956 -6.007483 -21.974596 139.999924
[Rope4_Seg07]
39 139.999802 0.000000 0.000000 0.589945 -1.324890 -5.898541 139.999802
40 139.999802 0.000000 0.000000 0.720651 -1.907047 -5.993326 139.999802
[Rope4_Seg08]
39 139.999924 0.000000 0.000119 -1.352631 -0.753866 -3.224642 139.999924
40 139.999924 0.000000 0.000119 -1.304274 -1.064315 -3.231375 139.999924
[Rope4_Seg09]
39 90.185791 0.000060 0.000060 -135.617828 2.228885 0.850567 90.185791
40 90.185791 0.000060 0.000060 -135.617828 2.228885 0.850567 90.185791
[L_rear_hand01]
39 101.696655 -8.392275 -7.654577 -12.874829 -36.868488 107.832764 102.329041
40 101.696655 -8.392275 -7.654577 -12.874829 -36.868488 107.832764 102.329041
[L_rear_hand02]
39 102.726799 -1.568258 5.773216 71.484581 71.816628 158.486160 102.900848
40 102.726799 -1.568258 5.773216 71.484619 71.816643 158.486160 102.900848
[L_rear_hand03]
39 104.552910 9.721220 -10.420293 -177.714203 -24.565960 -106.089035 105.519653
40 104.552910 9.721220 -10.420293 -177.714203 -24.565960 -106.089035 105.519653
